<svg width="300" height="300" viewBox="0 0 300 300" xmlns="http://www.w3.org/2000/svg">
  <!-- Background -->
  <rect width="300" height="300" fill="#FFFFFF"/>

  <!-- Shadow -->
  <ellipse cx="150" cy="270" rx="110" ry="12" fill="#E5E7EB" opacity="0.5"/>

  <!-- Correia enrolada - camada traseira -->
  <ellipse cx="150" cy="150" rx="100" ry="95" fill="#1F2937" opacity="0.3"/>

  <!-- Correia enrolada - camada do meio -->
  <ellipse cx="150" cy="150" rx="80" ry="75" fill="#27272A"/>

  <!-- Correia enrolada - camada frontal -->
  <ellipse cx="150" cy="150" rx="60" ry="55" fill="#374151"/>

  <!-- Centro da correia -->
  <ellipse cx="150" cy="150" rx="40" ry="35" fill="#1F2937"/>

  <!-- Dentes da correia - linhas radiais -->
  <defs>
    <g id="teeth-segment">
      <line x1="150" y1="95" x2="150" y2="115" stroke="#52525B" stroke-width="1.5"/>
    </g>
  </defs>

  <!-- Padrão de dentes ao redor -->
  <g transform="rotate(0 150 150)"><use href="#teeth-segment"/></g>
  <g transform="rotate(10 150 150)"><use href="#teeth-segment"/></g>
  <g transform="rotate(20 150 150)"><use href="#teeth-segment"/></g>
  <g transform="rotate(30 150 150)"><use href="#teeth-segment"/></g>
  <g transform="rotate(40 150 150)"><use href="#teeth-segment"/></g>
  <g transform="rotate(50 150 150)"><use href="#teeth-segment"/></g>
  <g transform="rotate(60 150 150)"><use href="#teeth-segment"/></g>
  <g transform="rotate(70 150 150)"><use href="#teeth-segment"/></g>
  <g transform="rotate(80 150 150)"><use href="#teeth-segment"/></g>
  <g transform="rotate(90 150 150)"><use href="#teeth-segment"/></g>
  <g transform="rotate(100 150 150)"><use href="#teeth-segment"/></g>
  <g transform="rotate(110 150 150)"><use href="#teeth-segment"/></g>
  <g transform="rotate(120 150 150)"><use href="#teeth-segment"/></g>
  <g transform="rotate(130 150 150)"><use href="#teeth-segment"/></g>
  <g transform="rotate(140 150 150)"><use href="#teeth-segment"/></g>
  <g transform="rotate(150 150 150)"><use href="#teeth-segment"/></g>
  <g transform="rotate(160 150 150)"><use href="#teeth-segment"/></g>
  <g transform="rotate(170 150 150)"><use href="#teeth-segment"/></g>
  <g transform="rotate(180 150 150)"><use href="#teeth-segment"/></g>
  <g transform="rotate(190 150 150)"><use href="#teeth-segment"/></g>
  <g transform="rotate(200 150 150)"><use href="#teeth-segment"/></g>
  <g transform="rotate(210 150 150)"><use href="#teeth-segment"/></g>
  <g transform="rotate(220 150 150)"><use href="#teeth-segment"/></g>
  <g transform="rotate(230 150 150)"><use href="#teeth-segment"/></g>
  <g transform="rotate(240 150 150)"><use href="#teeth-segment"/></g>
  <g transform="rotate(250 150 150)"><use href="#teeth-segment"/></g>
  <g transform="rotate(260 150 150)"><use href="#teeth-segment"/></g>
  <g transform="rotate(270 150 150)"><use href="#teeth-segment"/></g>
  <g transform="rotate(280 150 150)"><use href="#teeth-segment"/></g>
  <g transform="rotate(290 150 150)"><use href="#teeth-segment"/></g>
  <g transform="rotate(300 150 150)"><use href="#teeth-segment"/></g>
  <g transform="rotate(310 150 150)"><use href="#teeth-segment"/></g>
  <g transform="rotate(320 150 150)"><use href="#teeth-segment"/></g>
  <g transform="rotate(330 150 150)"><use href="#teeth-segment"/></g>
  <g transform="rotate(340 150 150)"><use href="#teeth-segment"/></g>
  <g transform="rotate(350 150 150)"><use href="#teeth-segment"/></g>

  <!-- Etiqueta central -->
  <rect x="110" y="135" width="80" height="30" rx="4" fill="white" opacity="0.95"/>
  <text x="150" y="152" font-family="Arial, sans-serif" font-size="14" font-weight="bold" fill="#DC2626" text-anchor="middle">GATES</text>
  <text x="150" y="163" font-family="Arial, sans-serif" font-size="7" fill="#6B7280" text-anchor="middle">TIMING BELT</text>

  <!-- Brilho -->
  <ellipse cx="120" cy="120" rx="25" ry="30" fill="white" opacity="0.1"/>
</svg>
