<svg width="300" height="300" viewBox="0 0 300 300" xmlns="http://www.w3.org/2000/svg">
  <!-- Background -->
  <rect width="300" height="300" fill="#FFFFFF"/>

  <!-- Shadow -->
  <ellipse cx="150" cy="265" rx="100" ry="10" fill="#E5E7EB" opacity="0.5"/>

  <!-- Moldura externa -->
  <rect x="60" y="80" width="180" height="160" rx="6" fill="#3F3F46" stroke="#27272A" stroke-width="2"/>

  <!-- Moldura interna -->
  <rect x="70" y="90" width="160" height="140" rx="4" fill="#52525B"/>

  <!-- Elemento filtrante - camadas plissadas -->
  <defs>
    <pattern id="pleats" x="0" y="0" width="8" height="140" patternUnits="userSpaceOnUse">
      <rect x="0" y="0" width="4" height="140" fill="#FEF3C7"/>
      <rect x="4" y="0" width="4" height="140" fill="#FDE68A"/>
    </pattern>
  </defs>

  <!-- Papel do filtro -->
  <rect x="75" y="95" width="150" height="130" rx="3" fill="url(#pleats)"/>

  <!-- Linhas das pregas -->
  <line x1="83" y1="95" x2="83" y2="225" stroke="#D97706" stroke-width="0.5" opacity="0.4"/>
  <line x1="91" y1="95" x2="91" y2="225" stroke="#D97706" stroke-width="0.5" opacity="0.4"/>
  <line x1="99" y1="95" x2="99" y2="225" stroke="#D97706" stroke-width="0.5" opacity="0.4"/>
  <line x1="107" y1="95" x2="107" y2="225" stroke="#D97706" stroke-width="0.5" opacity="0.4"/>
  <line x1="115" y1="95" x2="115" y2="225" stroke="#D97706" stroke-width="0.5" opacity="0.4"/>
  <line x1="123" y1="95" x2="123" y2="225" stroke="#D97706" stroke-width="0.5" opacity="0.4"/>
  <line x1="131" y1="95" x2="131" y2="225" stroke="#D97706" stroke-width="0.5" opacity="0.4"/>
  <line x1="139" y1="95" x2="139" y2="225" stroke="#D97706" stroke-width="0.5" opacity="0.4"/>
  <line x1="147" y1="95" x2="147" y2="225" stroke="#D97706" stroke-width="0.5" opacity="0.4"/>
  <line x1="155" y1="95" x2="155" y2="225" stroke="#D97706" stroke-width="0.5" opacity="0.4"/>
  <line x1="163" y1="95" x2="163" y2="225" stroke="#D97706" stroke-width="0.5" opacity="0.4"/>
  <line x1="171" y1="95" x2="171" y2="225" stroke="#D97706" stroke-width="0.5" opacity="0.4"/>
  <line x1="179" y1="95" x2="179" y2="225" stroke="#D97706" stroke-width="0.5" opacity="0.4"/>
  <line x1="187" y1="95" x2="187" y2="225" stroke="#D97706" stroke-width="0.5" opacity="0.4"/>
  <line x1="195" y1="95" x2="195" y2="225" stroke="#D97706" stroke-width="0.5" opacity="0.4"/>
  <line x1="203" y1="95" x2="203" y2="225" stroke="#D97706" stroke-width="0.5" opacity="0.4"/>
  <line x1="211" y1="95" x2="211" y2="225" stroke="#D97706" stroke-width="0.5" opacity="0.4"/>
  <line x1="219" y1="95" x2="219" y2="225" stroke="#D97706" stroke-width="0.5" opacity="0.4"/>

  <!-- Etiqueta -->
  <rect x="100" y="140" width="100" height="40" rx="3" fill="white" opacity="0.9"/>
  <text x="150" y="158" font-family="Arial, sans-serif" font-size="14" font-weight="bold" fill="#1F2937" text-anchor="middle">TECFIL</text>
  <text x="150" y="173" font-family="Arial, sans-serif" font-size="9" fill="#6B7280" text-anchor="middle">AIR FILTER</text>
</svg>
