<svg width="27" height="27" viewBox="0 0 27 27" fill="none" xmlns="http://www.w3.org/2000/svg">
<path d="M18.4855 7.84055L17.0817 5.62254C16.7859 5.27766 16.3804 5.0625 15.9258 5.0625H11.0742C10.6196 5.0625 10.2141 5.27766 9.91828 5.62254L8.51449 7.84055C8.21865 8.18596 7.83738 8.4375 7.38281 8.4375H4.21875C3.7712 8.4375 3.34197 8.61529 3.02551 8.93176C2.70904 9.24823 2.53125 9.67745 2.53125 10.125V20.25C2.53125 20.6976 2.70904 21.1268 3.02551 21.4432C3.34197 21.7597 3.7712 21.9375 4.21875 21.9375H22.7812C23.2288 21.9375 23.658 21.7597 23.9745 21.4432C24.291 21.1268 24.4688 20.6976 24.4688 20.25V10.125C24.4688 9.67745 24.291 9.24823 23.9745 8.93176C23.658 8.61529 23.2288 8.4375 22.7812 8.4375H19.6699C19.2138 8.4375 18.7813 8.18596 18.4855 7.84055Z" stroke="#C8CACD" stroke-width="1.6875" stroke-linecap="round" stroke-linejoin="round"/>
<path d="M13.5 18.5625C15.83 18.5625 17.7188 16.6737 17.7188 14.3438C17.7188 12.0138 15.83 10.125 13.5 10.125C11.17 10.125 9.28125 12.0138 9.28125 14.3438C9.28125 16.6737 11.17 18.5625 13.5 18.5625Z" stroke="#C8CACD" stroke-width="1.6875" stroke-miterlimit="10"/>
<path d="M6.53906 8.33203V7.17188H5.27344V8.33203" stroke="#C8CACD" stroke-width="1.6875" stroke-linecap="round" stroke-linejoin="round"/>
</svg>
