<svg width="26" height="26" viewBox="0 0 26 26" fill="none" xmlns="http://www.w3.org/2000/svg">
<path d="M11.2277 3.24875C9.64997 3.24875 8.10766 3.71661 6.79581 4.59315C5.48396 5.4697 4.4615 6.71557 3.85772 8.17322C3.25394 9.63087 3.09597 11.2348 3.40377 12.7823C3.71158 14.3297 4.47133 15.7511 5.58697 16.8667C6.7026 17.9824 8.12401 18.7421 9.67144 19.0499C11.2189 19.3577 12.8228 19.1997 14.2805 18.596C15.7381 17.9922 16.984 16.9697 17.8605 15.6579C18.7371 14.346 19.2049 12.8037 19.2049 11.226C19.2048 9.11032 18.3643 7.08136 16.8683 5.58537C15.3723 4.08938 13.3434 3.24888 11.2277 3.24875Z" stroke="#C8CACD" stroke-width="2.16667" stroke-miterlimit="10"/>
<path d="M17.1794 17.1779L22.7507 22.7491" stroke="#C8CACD" stroke-width="2.16667" stroke-miterlimit="10" stroke-linecap="round"/>
</svg>
